<svg width="442" height="80" viewBox="0 0 442 80" fill="none" xmlns="http://www.w3.org/2000/svg">
<path d="M0.3 79V9H32.1C39.7 9 46.4 10.4667 52.2 13.4C58 16.2667 62.5333 20.3 65.8 25.5C69.0667 30.7 70.7 36.8667 70.7 44C70.7 51.0667 69.0667 57.2333 65.8 62.5C62.5333 67.7 58 71.7667 52.2 74.7C46.4 77.5667 39.7 79 32.1 79H0.3ZM16.5 65.7H31.3C35.9667 65.7 40 64.8333 43.4 63.1C46.8667 61.3 49.5333 58.7667 51.4 55.5C53.3333 52.2333 54.3 48.4 54.3 44C54.3 39.5333 53.3333 35.7 51.4 32.5C49.5333 29.2333 46.8667 26.7333 43.4 25C40 23.2 35.9667 22.3 31.3 22.3H16.5V65.7ZM81.8172 79V25.2H97.4172V79H81.8172ZM89.6172 17.7C86.7505 17.7 84.4172 16.8667 82.6172 15.2C80.8172 13.5333 79.9172 11.4667 79.9172 9C79.9172 6.53333 80.8172 4.46666 82.6172 2.8C84.4172 1.13333 86.7505 0.299994 89.6172 0.299994C92.4839 0.299994 94.8172 1.1 96.6172 2.7C98.4172 4.23333 99.3172 6.23333 99.3172 8.7C99.3172 11.3 98.4172 13.4667 96.6172 15.2C94.8839 16.8667 92.5505 17.7 89.6172 17.7Z" fill="#FED136"/>
<path d="M127.995 40.5H161.595V53.5H127.995V40.5ZM129.195 79H112.995V9H165.895V22H129.195V79ZM175.763 79V25.2H191.363V79H175.763ZM183.563 17.7C180.696 17.7 178.363 16.8667 176.563 15.2C174.763 13.5333 173.863 11.4667 173.863 9C173.863 6.53333 174.763 4.46666 176.563 2.8C178.363 1.13333 180.696 0.299994 183.563 0.299994C186.429 0.299994 188.763 1.1 190.563 2.7C192.363 4.23333 193.263 6.23333 193.263 8.7C193.263 11.3 192.363 13.4667 190.563 15.2C188.829 16.8667 186.496 17.7 183.563 17.7ZM238.541 24.4C242.807 24.4 246.607 25.2667 249.941 27C253.341 28.6667 256.007 31.2667 257.941 34.8C259.874 38.2667 260.841 42.7333 260.841 48.2V79H245.241V50.6C245.241 46.2667 244.274 43.0667 242.341 41C240.474 38.9333 237.807 37.9 234.341 37.9C231.874 37.9 229.641 38.4333 227.641 39.5C225.707 40.5 224.174 42.0667 223.041 44.2C221.974 46.3333 221.441 49.0667 221.441 52.4V79H205.841V25.2H220.741V40.1L217.941 35.6C219.874 32 222.641 29.2333 226.241 27.3C229.841 25.3667 233.941 24.4 238.541 24.4ZM298.472 79.8C293.405 79.8 288.839 78.6667 284.772 76.4C280.705 74.0667 277.472 70.8333 275.072 66.7C272.739 62.5667 271.572 57.7 271.572 52.1C271.572 46.4333 272.739 41.5333 275.072 37.4C277.472 33.2667 280.705 30.0667 284.772 27.8C288.839 25.5333 293.405 24.4 298.472 24.4C303.005 24.4 306.972 25.4 310.372 27.4C313.772 29.4 316.405 32.4333 318.272 36.5C320.139 40.5667 321.072 45.7667 321.072 52.1C321.072 58.3667 320.172 63.5667 318.372 67.7C316.572 71.7667 313.972 74.8 310.572 76.8C307.239 78.8 303.205 79.8 298.472 79.8ZM301.172 67C303.705 67 306.005 66.4 308.072 65.2C310.139 64 311.772 62.3 312.972 60.1C314.239 57.8333 314.872 55.1667 314.872 52.1C314.872 48.9667 314.239 46.3 312.972 44.1C311.772 41.9 310.139 40.2 308.072 39C306.005 37.8 303.705 37.2 301.172 37.2C298.572 37.2 296.239 37.8 294.172 39C292.105 40.2 290.439 41.9 289.172 44.1C287.972 46.3 287.372 48.9667 287.372 52.1C287.372 55.1667 287.972 57.8333 289.172 60.1C290.439 62.3 292.105 64 294.172 65.2C296.239 66.4 298.572 67 301.172 67ZM315.272 79V68L315.572 52L314.572 36.1V4.8H330.172V79H315.272ZM371.31 79.8C365.177 79.8 359.777 78.6 355.11 76.2C350.51 73.8 346.943 70.5333 344.41 66.4C341.877 62.2 340.61 57.4333 340.61 52.1C340.61 46.7 341.843 41.9333 344.31 37.8C346.843 33.6 350.277 30.3333 354.61 28C358.943 25.6 363.843 24.4 369.31 24.4C374.577 24.4 379.31 25.5333 383.51 27.8C387.777 30 391.143 33.2 393.61 37.4C396.077 41.5333 397.31 46.5 397.31 52.3C397.31 52.9 397.277 53.6 397.21 54.4C397.143 55.1333 397.077 55.8333 397.01 56.5H353.31V47.4H388.81L382.81 50.1C382.81 47.3 382.243 44.8667 381.11 42.8C379.977 40.7333 378.41 39.1333 376.41 38C374.41 36.8 372.077 36.2 369.41 36.2C366.743 36.2 364.377 36.8 362.31 38C360.31 39.1333 358.743 40.7667 357.61 42.9C356.477 44.9667 355.91 47.4333 355.91 50.3V52.7C355.91 55.6333 356.543 58.2333 357.81 60.5C359.143 62.7 360.977 64.4 363.31 65.6C365.71 66.7333 368.51 67.3 371.71 67.3C374.577 67.3 377.077 66.8667 379.21 66C381.41 65.1333 383.41 63.8333 385.21 62.1L393.51 71.1C391.043 73.9 387.943 76.0667 384.21 77.6C380.477 79.0667 376.177 79.8 371.31 79.8ZM407.696 79V25.2H422.596V40.4L420.496 36C422.096 32.2 424.663 29.3333 428.196 27.4C431.729 25.4 436.029 24.4 441.096 24.4V38.8C440.429 38.7333 439.829 38.7 439.296 38.7C438.763 38.6333 438.196 38.6 437.596 38.6C433.329 38.6 429.863 39.8333 427.196 42.3C424.596 44.7 423.296 48.4667 423.296 53.6V79H407.696Z" fill="#333333"/>
</svg>
